<svg width="34" height="34" viewBox="0 0 34 34" fill="none" xmlns="http://www.w3.org/2000/svg">
<rect width="34" height="34" fill="#F2F2F2"/>
<g id="template &#226;&#132;&#150;5" clip-path="url(#clip0_0_1)">
<rect width="1920" height="5038" transform="translate(-366 -4736)" fill="white"/>
<g id="Footer" clip-path="url(#clip1_0_1)">
<rect id="Rectangle Copy 175" x="-375" y="-292" width="1920" height="500" fill="#171717"/>
<g id="Keep in touch" clip-path="url(#clip2_0_1)">
<g id="facebook">
<rect id="Rectangle" width="34" height="34" rx="3" fill="#373737"/>
<g id="Group 12 Copy 3">
<g id="facebook-logo (1) copy">
<path id="Path" d="M20.7831 8.21147L18.784 8.20825C16.5381 8.20825 15.0867 9.69991 15.0867 12.0087V13.7609H13.0767C12.903 13.7609 12.7623 13.902 12.7623 14.0759V16.6147C12.7623 16.7887 12.9032 16.9296 13.0767 16.9296H15.0867V23.3358C15.0867 23.5098 15.2273 23.6507 15.401 23.6507H18.0235C18.1972 23.6507 18.3379 23.5096 18.3379 23.3358V16.9296H20.688C20.8617 16.9296 21.0024 16.7887 21.0024 16.6147L21.0033 14.0759C21.0033 13.9924 20.9701 13.9124 20.9113 13.8533C20.8524 13.7942 20.7722 13.7609 20.6888 13.7609H18.3379V12.2755C18.3379 11.5616 18.5077 11.1991 19.4361 11.1991L20.7828 11.1986C20.9563 11.1986 21.097 11.0576 21.097 10.8838V8.52634C21.097 8.35268 20.9565 8.21179 20.7831 8.21147Z" fill="white"/>
</g>
</g>
</g>
</g>
</g>
</g>
<defs>
<clipPath id="clip0_0_1">
<rect width="1920" height="5038" fill="white" transform="translate(-366 -4736)"/>
</clipPath>
<clipPath id="clip1_0_1">
<rect width="1920" height="594" fill="white" transform="translate(-375 -292)"/>
</clipPath>
<clipPath id="clip2_0_1">
<rect width="230" height="83" fill="white" transform="translate(0 -49)"/>
</clipPath>
</defs>
</svg>
